<svg xmlns="http://www.w3.org/2000/svg" version="1.1" xmlns:xlink="http://www.w3.org/1999/xlink" xmlns:svgjs="http://svgjs.dev/svgjs" width="2000" height="459" viewBox="0 0 2000 459"><g transform="matrix(1,0,0,1,-1.2121212121212466,0.4642487528689401)"><svg viewBox="0 0 396 91" data-background-color="#ffffff" preserveAspectRatio="xMidYMid meet" height="459" width="2000" xmlns="http://www.w3.org/2000/svg" xmlns:xlink="http://www.w3.org/1999/xlink"><g id="tight-bounds" transform="matrix(1,0,0,1,0.2400000000000091,-0.0920406024206386)"><svg viewBox="0 0 395.52 91.18408120484128" height="91.18408120484128" width="395.52"><g><svg viewBox="0 0 541.7517943183339 124.89669196498642" height="91.18408120484128" width="395.52"><g transform="matrix(1,0,0,1,0,17.26140967099306)"><svg viewBox="0 0 395.52 90.3738726230003" height="90.3738726230003" width="395.52"><g id="textblocktransform"><svg viewBox="0 0 395.52 90.3738726230003" height="90.3738726230003" width="395.52" id="textblock"><g><svg viewBox="0 0 395.52 90.3738726230003" height="90.3738726230003" width="395.52"><g transform="matrix(1,0,0,1,0,0)"><svg width="395.52" viewBox="2 -37.35 165.64 37.85" height="90.3738726230003" data-palette-color="#000000"><path d="M5.7 0L5.7-18.65 2-18.65 2-22.95 5.7-22.95 5.7-27.9Q5.7-32.4 7.88-34.88 10.05-37.35 14.25-37.35L14.25-37.35Q15.95-37.35 18.1-36.4L18.1-36.4 17.05-31.3Q16.7-31.7 15.98-32.08 15.25-32.45 14.4-32.45L14.4-32.45Q11.05-32.45 11-28.1L11-28.1 11-22.95 16.4-22.95 16.4-18.65 11-18.65 11 0 5.7 0ZM22.05 0L22.05-22.95 27.65-22.95 27.65 0 22.05 0ZM24.8-27.25Q23.25-27.25 22.2-28.3 21.15-29.35 21.15-30.9L21.15-30.9Q21.15-32.3 22.2-33.3 23.25-34.3 24.8-34.3L24.8-34.3Q26.3-34.3 27.35-33.3 28.4-32.3 28.4-30.9L28.4-30.9Q28.4-29.35 27.37-28.3 26.35-27.25 24.8-27.25L24.8-27.25ZM35.14 0L35.14-22.95 40.45-22.95 40.49-18.75Q41.45-20.85 43.49-22.2 45.55-23.55 48.3-23.55L48.3-23.55Q51.84-23.55 53.75-22.08 55.64-20.6 56.3-17.95 56.95-15.3 56.95-11.05L56.95-11.05 56.95 0 51.55 0 51.55-10.9Q51.55-15.25 50.7-17.18 49.84-19.1 47.2-19.1L47.2-19.1Q45.7-19.1 44.14-18.18 42.59-17.25 41.57-15.5 40.55-13.75 40.55-11.4L40.55-11.4 40.55 0 35.14 0ZM74.04 0.5Q70.94 0.5 68.32-0.98 65.69-2.45 64.12-5.18 62.54-7.9 62.54-11.55L62.54-11.55Q62.54-15.15 63.92-17.85 65.29-20.55 67.84-22.05 70.39-23.55 73.84-23.55L73.84-23.55Q75.84-23.55 77.59-22.85 79.34-22.15 80.54-21.13 81.74-20.1 82.14-19.1L82.14-19.1 82.24-22.95 87.39-22.95 87.39 0 82.29 0 82.19-4.05Q81.34-2.25 79.09-0.88 76.84 0.5 74.04 0.5L74.04 0.5ZM74.94-4Q77.79-4 79.74-5.98 81.69-7.95 81.69-11.15L81.69-11.15 81.69-11.5Q81.69-13.65 80.79-15.35 79.89-17.05 78.34-18 76.79-18.95 74.94-18.95L74.94-18.95Q71.74-18.95 69.99-16.88 68.24-14.8 68.24-11.5L68.24-11.5Q68.24-8.15 69.97-6.08 71.69-4 74.94-4L74.94-4ZM94.64 0L94.64-22.95 99.94-22.95 99.99-18.75Q100.94-20.85 102.99-22.2 105.04-23.55 107.79-23.55L107.79-23.55Q111.34-23.55 113.24-22.08 115.14-20.6 115.79-17.95 116.44-15.3 116.44-11.05L116.44-11.05 116.44 0 111.04 0 111.04-10.9Q111.04-15.25 110.19-17.18 109.34-19.1 106.69-19.1L106.69-19.1Q105.19-19.1 103.64-18.18 102.09-17.25 101.06-15.5 100.04-13.75 100.04-11.4L100.04-11.4 100.04 0 94.64 0ZM134.09 0.5Q130.69 0.5 127.96-0.98 125.24-2.45 123.64-5.23 122.04-8 122.04-11.75L122.04-11.75Q122.04-15.3 123.51-17.98 124.99-20.65 127.66-22.1 130.34-23.55 133.84-23.55L133.84-23.55Q136.49-23.55 138.41-22.88 140.34-22.2 141.44-21.2L141.44-21.2 139.04-16.85Q136.94-18.95 134.29-18.95L134.29-18.95Q131.09-18.95 129.41-17 127.74-15.05 127.74-11.8L127.74-11.8Q127.74-8.1 129.46-6.05 131.19-4 134.29-4L134.29-4Q135.84-4 137.31-4.45 138.79-4.9 139.59-5.5L139.59-5.5 141.54-1.7Q140.44-0.85 138.46-0.18 136.49 0.5 134.09 0.5L134.09 0.5ZM157.54 0.5Q153.44 0.5 150.69-1.13 147.94-2.75 146.64-5.48 145.34-8.2 145.34-11.45L145.34-11.45Q145.34-15.1 146.86-17.85 148.39-20.6 151.09-22.08 153.79-23.55 157.19-23.55L157.19-23.55Q162.49-23.55 165.06-20.63 167.64-17.7 167.64-12.4L167.64-12.4Q167.64-11.05 167.49-9.6L167.49-9.6 150.99-9.6Q151.54-6.55 153.16-5.2 154.79-3.85 157.69-3.85L157.69-3.85Q160.09-3.85 161.64-4.25 163.19-4.65 164.49-5.35L164.49-5.35 166.14-1.5Q164.89-0.7 162.74-0.1 160.59 0.5 157.54 0.5L157.54 0.5ZM150.99-13.35L162.39-13.35Q162.44-16.45 161.04-17.73 159.64-19 157.04-19L157.04-19Q151.79-19 150.99-13.35L150.99-13.35Z" opacity="1" transform="matrix(1,0,0,1,0,0)" fill="#000000" class="wordmark-text-0" data-fill-palette-color="primary" id="text-0"></path></svg></g></svg></g></svg></g></svg></g><g transform="matrix(1,0,0,1,416.8551023533474,0)"><svg viewBox="0 0 124.89669196498642 124.89669196498642" height="124.89669196498642" width="124.89669196498642"><g><svg xmlns="http://www.w3.org/2000/svg" xmlns:xlink="http://www.w3.org/1999/xlink" version="1.1" x="0" y="0" viewBox="0.5999999999999996 0.7000000000000002 46.9 46.9" enable-background="new 0 0 48 48" xml:space="preserve" height="124.89669196498642" width="124.89669196498642" class="icon-icon-0" data-fill-palette-color="accent" id="icon-0"><path fill="#000000" d="M42 21.5c0.2 0 0.5 0.1 0.7 0.1 2.6 0 4.8-2.2 4.8-4.8s-2.1-4.8-4.8-4.8c-2.6 0-4.8 2.2-4.8 4.8 0 0.9 0.3 1.8 0.7 2.5-0.1 0.1-0.2 0.2-0.2 0.3l-3.2 4.5c-0.1 0.1-0.2 0.3-0.2 0.5-1-0.3-2.1-0.5-3.2-0.5-2.3 0-4.5 0.7-6.3 1.9l-8.3-12.3c0-0.1-0.1-0.1-0.2-0.2 1.2-1.4 1.9-3.1 1.9-5.1 0-4.3-3.4-7.7-7.6-7.7S3.6 4 3.6 8.2s3.4 7.7 7.6 7.7c0.8 0 1.5-0.1 2.3-0.3 0 0.1 0.1 0.2 0.1 0.3l8.4 12.4c0.1 0.2 0.2 0.3 0.4 0.4-1.4 2-2.3 4.4-2.3 7 0 0.1 0 0.1 0 0.2-0.1 0-0.3 0-0.4 0L7.8 38.3c-0.1 0-0.3 0.1-0.4 0.1-0.7-0.9-1.8-1.5-3-1.5-2.1 0-3.8 1.7-3.8 3.9 0 2.1 1.7 3.9 3.8 3.9 1.5 0 2.9-0.9 3.5-2.3 0.1 0 0.2 0 0.3 0 0.1 0 0.3 0 0.4 0l11.9-2.3c0.1 0 0.3-0.1 0.4-0.1 1.7 4.4 5.9 7.6 10.8 7.6 6.4 0 11.6-5.3 11.6-11.8 0-3.9-1.8-7.3-4.7-9.4l3.1-4.4C41.9 21.8 42 21.7 42 21.5zM31.1 33.8c0.2 0.3 0.5 0.6 1 0.9 1.1 0.6 2 1.1 2.5 1.7 0.5 0.6 0.8 1.4 0.8 2.5 0 1-0.3 1.9-0.8 2.5-0.5 0.6-1.3 1-2.2 1.1v1.8h-1.3v-1.8c-1-0.1-1.7-0.5-2.4-1.2-0.6-0.7-0.9-1.7-0.9-3.1h2.5c0 0.8 0.1 1.4 0.4 1.8 0.3 0.4 0.6 0.5 1 0.5 0.4 0 0.7-0.1 0.9-0.4 0.2-0.3 0.3-0.7 0.3-1.2 0-0.5-0.1-0.9-0.3-1.2-0.2-0.3-0.5-0.6-1-0.9-1.1-0.5-2-1.1-2.5-1.7-0.5-0.6-0.8-1.4-0.8-2.5 0-1 0.3-1.8 0.8-2.5s1.3-1 2.2-1.2v-1.9h1.3v1.9c0.9 0.2 1.6 0.6 2.1 1.3 0.5 0.7 0.8 1.7 0.8 2.8H33c0-0.7-0.1-1.3-0.3-1.6-0.2-0.4-0.5-0.6-0.8-0.6-0.3 0-0.6 0.2-0.8 0.5-0.2 0.3-0.3 0.7-0.3 1.2C30.8 33.1 30.9 33.5 31.1 33.8z" data-fill-palette-color="accent"></path></svg></g></svg></g></svg></g><defs></defs></svg><rect width="395.52" height="91.18408120484128" fill="none" stroke="none" visibility="hidden"></rect></g></svg></g></svg>